<?xml version="1.0" standalone="no"?>
<!DOCTYPE svg PUBLIC "-//W3C//DTD SVG 20010904//EN"
 "http://www.w3.org/TR/2001/REC-SVG-20010904/DTD/svg10.dtd">
<svg version="1.0" xmlns="http://www.w3.org/2000/svg"
 width="1024.000000pt" height="1024.000000pt" viewBox="0 0 1024.000000 1024.000000"
 preserveAspectRatio="xMidYMid meet">
<metadata>
Created by potrace 1.11, written by Peter Selinger 2001-2013
</metadata>
<g transform="translate(0.000000,1024.000000) scale(0.100000,-0.100000)"
fill="#000000" stroke="none">
<path d="M3147 7900 l-32 -28 -2 -2099 c-1 -1154 -2 -2135 -3 -2179 l0 -81
-308 0 c-333 0 -354 -3 -379 -53 -7 -14 -13 -40 -13 -59 0 -32 36 -70 513
-548 281 -283 524 -521 539 -529 32 -17 71 -18 101 -3 12 6 250 240 529 520
374 375 509 517 518 543 14 44 -7 97 -47 115 -17 8 -122 12 -334 12 -170 0
-310 4 -310 7 -1 4 -2 981 -3 2172 -1 1704 -4 2170 -14 2187 -27 49 -44 51
-396 51 l-328 0 -31 -28z"/>
<path d="M5184 7919 c-20 -6 -37 -21 -48 -41 -16 -30 -17 -66 -14 -365 l3
-333 27 -27 28 -27 433 -1 c465 0 471 1 497 51 19 35 18 665 -1 700 -27 52
-33 52 -479 52 -228 0 -429 -4 -446 -9z"/>
<path d="M5198 6318 c-18 -3 -43 -19 -55 -35 -22 -27 -22 -31 -22 -365 l0
-337 30 -31 c18 -17 42 -30 57 -31 35 -1 1377 -1 1419 0 21 1 44 11 65 30 l33
29 0 332 c1 213 -3 339 -9 352 -6 12 -23 30 -38 41 -27 20 -43 20 -737 21
-391 1 -725 -2 -743 -6z"/>
<path d="M5193 4712 c-12 -2 -34 -17 -48 -34 l-25 -30 0 -337 c1 -257 4 -340
14 -353 36 -48 2 -47 1089 -47 580 0 1030 4 1043 9 13 5 33 24 43 41 18 29 19
55 20 346 0 339 -3 368 -51 394 -18 11 -229 13 -1043 14 -561 0 -1030 -1
-1042 -3z"/>
<path d="M5151 3079 l-31 -31 0 -328 c0 -185 4 -340 10 -354 5 -14 20 -32 34
-41 23 -15 137 -17 1338 -16 722 0 1326 0 1341 0 19 1 39 12 58 32 l29 32 0
338 -1 338 -30 31 -30 30 -1344 0 -1344 0 -30 -31z"/>
</g>
</svg>
